<svg xmlns="http://www.w3.org/2000/svg" viewBox="0 0 240 240" width="240" height="240">
  <defs>
    <linearGradient id="shine" gradientUnits="userSpaceOnUse" x1="-100" y1="-100" x2="100" y2="100">
      <stop offset="0" stop-color="#EBD6A8"/>
      <stop offset="0.5" stop-color="#C9A876"/>
      <stop offset="1" stop-color="#8A6D40"/>
    </linearGradient>
  </defs>
  <g transform="translate(120 120)" fill="url(#shine)">
    <polygon points="0,-100 14,-51 0,-8 -14,-51"/>
    <polygon points="95.11,-30.9 52.83,-2.45 7.61,-2.47 44.18,-29.07"/>
    <polygon points="58.78,80.9 18.65,49.49 4.7,6.47 41.3,33.03"/>
    <polygon points="-58.78,80.9 -41.3,33.03 -4.7,6.47 -18.65,49.49"/>
    <polygon points="-95.11,-30.9 -44.18,-29.07 -7.61,-2.47 -52.83,-2.45"/>
    <polygon points="38.21,-52.59 25.87,-22 5.29,-7.28 12.92,-31.4"/>
    <polygon points="61.82,20.09 28.91,17.81 8.56,2.78 33.86,2.59"/>
    <polygon points="0,65 -8,33 0,9 8,33"/>
    <polygon points="-61.82,20.09 -33.86,2.59 -8.56,2.78 -28.91,17.81"/>
    <polygon points="-38.21,-52.59 -12.92,-31.4 -5.29,-7.28 -25.87,-22"/>
  </g>
</svg>
