<svg xmlns="http://www.w3.org/2000/svg" viewBox="0 0 1600 200" width="1600" height="200" font-family="-apple-system, BlinkMacSystemFont, 'SF Pro Display', 'Segoe UI', Helvetica, Arial, sans-serif" role="img" aria-label="Engineered by RoSh. All rights reserved, all wrongs reversed.">
  <defs>
    <linearGradient id="bg" x1="0" y1="0" x2="0" y2="1"><stop offset="0" stop-color="#0A0A0C"/><stop offset="1" stop-color="#0B0B0D"/></linearGradient>
    <linearGradient id="gold" x1="0" y1="0" x2="1" y2="1"><stop offset="0" stop-color="#F0DDA9"/><stop offset="0.5" stop-color="#C9A876"/><stop offset="1" stop-color="#9E7E52"/></linearGradient>
    <linearGradient id="goldH" x1="0" y1="0" x2="1" y2="0"><stop offset="0" stop-color="#E8D4A2"/><stop offset="1" stop-color="#B7935F"/></linearGradient>
    <filter id="soft" x="-80%" y="-80%" width="260%" height="260%"><feGaussianBlur stdDeviation="4"/></filter>
  </defs>
  <rect width="1600" height="200" fill="url(#bg)"/>
  <line x1="0" y1="1" x2="1600" y2="1" stroke="#1C1B18" stroke-width="1"/>

  <!-- contact strip -->
  <text x="800" y="52" text-anchor="middle" font-family="ui-monospace,'SF Mono',Menlo,monospace" font-size="13" letter-spacing="1.4" fill="#9C988E">roshan@roshworldwide.com<tspan fill="#C9A876">   ·   </tspan>github.com/roshworldwide<tspan fill="#C9A876">   ·   </tspan>linkedin.com/in/roshworldwide<tspan fill="#C9A876">   ·   </tspan>roshworldwide.com</text>

  <!-- mark -->
  <g transform="translate(800,100)">
    <path transform="scale(0.6)" d="M0,-40 L8,-13.86 L34.64,-20 L16,0 L34.64,20 L8,13.86 L0,40 L-8,13.86 L-34.64,20 L-16,0 L-34.64,-20 L-8,-13.86 Z" fill="url(#gold)" filter="url(#soft)" opacity="0.8"/>
    <path transform="scale(0.6)" d="M0,-40 L8,-13.86 L34.64,-20 L16,0 L34.64,20 L8,13.86 L0,40 L-8,13.86 L-34.64,20 L-16,0 L-34.64,-20 L-8,-13.86 Z" fill="url(#gold)"/>
  </g>

  <text x="800" y="152" text-anchor="middle" font-size="18" font-weight="600" fill="#CFCCC3">Engineered By <tspan fill="url(#goldH)" font-weight="700">RoSh.</tspan></text>
  <text x="800" y="180" text-anchor="middle" font-family="ui-monospace,'SF Mono',Menlo,monospace" font-size="11" letter-spacing="3" fill="#615E57">ALL RIGHTS RESERVED &#160;&#160;|&#160;&#160; ALL WRONGS REVERSED</text>
</svg>
