<svg xmlns="http://www.w3.org/2000/svg" viewBox="0 0 1600 280" width="1600" height="280" font-family="-apple-system, BlinkMacSystemFont, 'SF Pro Display', 'Inter Tight', system-ui, sans-serif">
  <rect width="1600" height="280" fill="#0E0E10"/>
  <rect x="0" y="1" width="1600" height="1" fill="#F5F5F2" fill-opacity="0.06"/>

  <!-- Decastar (titanium) — receding watermark -->
  <g transform="translate(800 80) scale(0.221)" fill="#8E8B85" opacity="0.35">
    <polygon points="0,-100 14,-51 0,-8 -14,-51"/>
    <polygon points="95.11,-30.9 52.83,-2.45 7.61,-2.47 44.18,-29.07"/>
    <polygon points="58.78,80.9 18.65,49.49 4.7,6.47 41.3,33.03"/>
    <polygon points="-58.78,80.9 -41.3,33.03 -4.7,6.47 -18.65,49.49"/>
    <polygon points="-95.11,-30.9 -44.18,-29.07 -7.61,-2.47 -52.83,-2.45"/>
    <polygon points="38.21,-52.59 25.87,-22 5.29,-7.28 12.92,-31.4"/>
    <polygon points="61.82,20.09 28.91,17.81 8.56,2.78 33.86,2.59"/>
    <polygon points="0,65 -8,33 0,9 8,33"/>
    <polygon points="-61.82,20.09 -33.86,2.59 -8.56,2.78 -28.91,17.81"/>
    <polygon points="-38.21,-52.59 -12.92,-31.4 -5.29,-7.28 -25.87,-22"/>
  </g>

  <text x="800" y="172" text-anchor="middle" font-size="26" font-weight="500" fill="#F5F5F2">Most engineers list skills. Deployments are listed here.</text>
  <text x="800" y="228" text-anchor="middle" font-family="'SF Mono', ui-monospace, 'JetBrains Mono', Menlo, monospace" font-size="12" letter-spacing="1" fill="#888780">roshworldwide.com · bengaluru · est. 2026</text>
</svg>
