<svg xmlns="http://www.w3.org/2000/svg" viewBox="0 0 1600 720" width="1600" height="720" font-family="-apple-system, BlinkMacSystemFont, 'SF Pro Display', 'Inter Tight', system-ui, sans-serif">
  <defs>
    <filter id="blur55" x="-60%" y="-60%" width="220%" height="220%"><feGaussianBlur stdDeviation="55"/></filter>
    <filter id="blur70" x="-80%" y="-80%" width="260%" height="260%"><feGaussianBlur stdDeviation="70"/></filter>
    <radialGradient id="lfGold"><stop offset="0" stop-color="#C9A876" stop-opacity="0.12"/><stop offset="1" stop-color="#C9A876" stop-opacity="0"/></radialGradient>
    <radialGradient id="lfMid"><stop offset="0" stop-color="#1A2332" stop-opacity="0.18"/><stop offset="1" stop-color="#1A2332" stop-opacity="0"/></radialGradient>
    <radialGradient id="auGold"><stop offset="0" stop-color="#C9A876" stop-opacity="0.08"/><stop offset="1" stop-color="#C9A876" stop-opacity="0"/></radialGradient>
    <radialGradient id="auMid"><stop offset="0" stop-color="#1A2332" stop-opacity="0.14"/><stop offset="1" stop-color="#1A2332" stop-opacity="0"/></radialGradient>
    <radialGradient id="sonar"><stop offset="0" stop-color="#C9A876" stop-opacity="0"/><stop offset="0.7" stop-color="#C9A876" stop-opacity="0"/><stop offset="1" stop-color="#C9A876" stop-opacity="0.4"/></radialGradient>
    <linearGradient id="specBand" x1="0" y1="0" x2="1" y2="0"><stop offset="0" stop-color="#ffffff" stop-opacity="0"/><stop offset="0.5" stop-color="#ffffff" stop-opacity="0.07"/><stop offset="1" stop-color="#ffffff" stop-opacity="0"/></linearGradient>
    <linearGradient id="shimmer" x1="0" y1="0" x2="1" y2="0"><stop offset="0" stop-color="#ffffff" stop-opacity="0"/><stop offset="0.5" stop-color="#ffffff" stop-opacity="0.06"/><stop offset="1" stop-color="#ffffff" stop-opacity="0"/></linearGradient>
    <linearGradient id="edgeGrad" x1="0" y1="0" x2="1" y2="0"><stop offset="0" stop-color="#ffffff" stop-opacity="0"/><stop offset="0.5" stop-color="#ffffff" stop-opacity="0.22"/><stop offset="1" stop-color="#ffffff" stop-opacity="0"/></linearGradient>
    <linearGradient id="topGlow" x1="0" y1="0" x2="0" y2="1"><stop offset="0" stop-color="#ffffff" stop-opacity="0.06"/><stop offset="1" stop-color="#ffffff" stop-opacity="0"/></linearGradient>
    <linearGradient id="shine" gradientUnits="userSpaceOnUse" x1="-100" y1="-100" x2="100" y2="100"><stop offset="0" stop-color="#EBD6A8"/><stop offset="0.5" stop-color="#C9A876"/><stop offset="1" stop-color="#8A6D40"/></linearGradient>
    <linearGradient id="goldNum" x1="0" y1="0" x2="0" y2="1"><stop offset="0" stop-color="#EBD6A8"/><stop offset="1" stop-color="#B8965F"/></linearGradient>
    <linearGradient id="glintBand" x1="0" y1="0" x2="1" y2="0"><stop offset="0" stop-color="#EBD6A8" stop-opacity="0"/><stop offset="0.5" stop-color="#EBD6A8" stop-opacity="0.6"/><stop offset="1" stop-color="#EBD6A8" stop-opacity="0"/></linearGradient>
    <clipPath id="heroclip"><rect x="200" y="90" width="1200" height="540" rx="36"/></clipPath>
  </defs>
  <rect width="1600" height="720" fill="#0E0E10"/>
  <g filter="url(#blur70)" transform="rotate(-8 800 360)">
    <ellipse cx="680" cy="360" rx="900" ry="200" fill="url(#auGold)"><animateTransform attributeName="transform" type="translate" calcMode="spline" dur="26s" repeatCount="indefinite" keyTimes="0;0.5;1" values="-60,0;60,0;-60,0" keySplines="0.5 0 0.1 1;0.5 0 0.1 1"/></ellipse>
    <ellipse cx="960" cy="380" rx="820" ry="190" fill="url(#auMid)"><animateTransform attributeName="transform" type="translate" calcMode="spline" dur="26s" repeatCount="indefinite" keyTimes="0;0.5;1" values="60,0;-60,0;60,0" keySplines="0.5 0 0.1 1;0.5 0 0.1 1"/></ellipse>
  </g>
  <g filter="url(#blur55)">
    <ellipse cx="560" cy="260" rx="460" ry="320" fill="url(#lfGold)"><animateTransform attributeName="transform" type="translate" calcMode="spline" dur="20s" repeatCount="indefinite" keyTimes="0;0.5;1" values="0,0;60,22;0,0" keySplines="0.5 0 0.1 1;0.5 0 0.1 1"/></ellipse>
    <ellipse cx="1080" cy="500" rx="500" ry="340" fill="url(#lfMid)"><animateTransform attributeName="transform" type="translate" calcMode="spline" dur="24s" repeatCount="indefinite" keyTimes="0;0.5;1" values="0,0;-66,-12;0,0" keySplines="0.5 0 0.1 1;0.5 0 0.1 1"/></ellipse>
  </g>
  <g fill="#F5F5F2">
    <circle cx="120" cy="150" r="1" opacity="0.05"><animate attributeName="opacity" calcMode="spline" dur="7s" repeatCount="indefinite" keyTimes="0;0.5;1" values="0.05;0.075;0.05" keySplines="0.5 0 0.1 1;0.5 0 0.1 1"/></circle>
    <circle cx="110" cy="560" r="1" opacity="0.045"><animate attributeName="opacity" calcMode="spline" dur="11s" repeatCount="indefinite" keyTimes="0;0.5;1" values="0.045;0.07;0.045" keySplines="0.5 0 0.1 1;0.5 0 0.1 1"/><animateTransform attributeName="transform" type="translate" additive="sum" calcMode="spline" dur="12s" repeatCount="indefinite" keyTimes="0;0.5;1" values="0,0;8,0;0,0" keySplines="0.5 0 0.1 1;0.5 0 0.1 1"/></circle>
    <circle cx="1490" cy="170" r="1" opacity="0.05"><animate attributeName="opacity" calcMode="spline" dur="8s" repeatCount="indefinite" keyTimes="0;0.5;1" values="0.05;0.075;0.05" keySplines="0.5 0 0.1 1;0.5 0 0.1 1"/></circle>
    <circle cx="1500" cy="560" r="1" opacity="0.045"><animate attributeName="opacity" calcMode="spline" dur="10s" repeatCount="indefinite" keyTimes="0;0.5;1" values="0.045;0.07;0.045" keySplines="0.5 0 0.1 1;0.5 0 0.1 1"/></circle>
    <circle cx="360" cy="60" r="1" opacity="0.05"><animate attributeName="opacity" calcMode="spline" dur="9s" repeatCount="indefinite" keyTimes="0;0.5;1" values="0.05;0.075;0.05" keySplines="0.5 0 0.1 1;0.5 0 0.1 1"/></circle>
    <circle cx="1240" cy="60" r="1" opacity="0.04"><animate attributeName="opacity" calcMode="spline" dur="11s" repeatCount="indefinite" keyTimes="0;0.5;1" values="0.04;0.065;0.04" keySplines="0.5 0 0.1 1;0.5 0 0.1 1"/></circle>
    <circle cx="800" cy="680" r="1" opacity="0.04"><animate attributeName="opacity" calcMode="spline" dur="10s" repeatCount="indefinite" keyTimes="0;0.5;1" values="0.04;0.065;0.04" keySplines="0.5 0 0.1 1;0.5 0 0.1 1"/></circle>
    <circle cx="440" cy="680" r="1" opacity="0.045"><animate attributeName="opacity" calcMode="spline" dur="8s" repeatCount="indefinite" keyTimes="0;0.5;1" values="0.045;0.07;0.045" keySplines="0.5 0 0.1 1;0.5 0 0.1 1"/></circle>
  </g>
  <rect x="200" y="90" width="1200" height="540" rx="36" fill="#1F1F22" fill-opacity="0.52" stroke="#F5F5F2" stroke-opacity="0.14" stroke-width="1"/>
  <g clip-path="url(#heroclip)">
    <rect x="200" y="90" width="1200" height="12" fill="url(#topGlow)"/>
    <g transform="rotate(20 800.0 360.0)"><rect x="-140" y="-234" width="280" height="1188" fill="url(#specBand)"><animateTransform attributeName="transform" type="translate" calcMode="spline" dur="11s" begin="0s" repeatCount="indefinite" keyTimes="0;0.4;1" values="0,0;1600,0;1600,0" keySplines="0.5 0 0.1 1;0.5 0 0.1 1"/></rect></g>
  </g>
  <rect x="236" y="90.5" width="1128" height="1.5" fill="url(#edgeGrad)"/>
  <path d="M236,90 H1364 A36,36 0 0 1 1400,126 V594 A36,36 0 0 1 1364,630 H236 A36,36 0 0 1 200,594 V126 A36,36 0 0 1 236,90 Z" fill="none" stroke="#C9A876" stroke-opacity="0.45" stroke-width="1.5" stroke-linecap="round" stroke-dasharray="140 3278.2"><animate attributeName="stroke-dashoffset" calcMode="linear" dur="14s" repeatCount="indefinite" values="0;-3418.2"/></path>
  <g transform="translate(800 238) scale(0.62)">
    <g fill="url(#shine)">
      <polygon points="0,-100 14,-51 0,-8 -14,-51"/>
      <polygon points="95.11,-30.9 52.83,-2.45 7.61,-2.47 44.18,-29.07"/>
      <polygon points="58.78,80.9 18.65,49.49 4.7,6.47 41.3,33.03"/>
      <polygon points="-58.78,80.9 -41.3,33.03 -4.7,6.47 -18.65,49.49"/>
      <polygon points="-95.11,-30.9 -44.18,-29.07 -7.61,-2.47 -52.83,-2.45"/>
      <polygon points="38.21,-52.59 25.87,-22 5.29,-7.28 12.92,-31.4"/>
      <polygon points="61.82,20.09 28.91,17.81 8.56,2.78 33.86,2.59"/>
      <polygon points="0,65 -8,33 0,9 8,33"/>
      <polygon points="-61.82,20.09 -33.86,2.59 -8.56,2.78 -28.91,17.81"/>
      <polygon points="-38.21,-52.59 -12.92,-31.4 -5.29,-7.28 -25.87,-22"/>
    </g>
    <mask id="gl800238">
      <polygon points="0,-100 14,-51 0,-8 -14,-51" fill="#ffffff"/>
      <polygon points="95.11,-30.9 52.83,-2.45 7.61,-2.47 44.18,-29.07" fill="#ffffff"/>
      <polygon points="58.78,80.9 18.65,49.49 4.7,6.47 41.3,33.03" fill="#ffffff"/>
      <polygon points="-58.78,80.9 -41.3,33.03 -4.7,6.47 -18.65,49.49" fill="#ffffff"/>
      <polygon points="-95.11,-30.9 -44.18,-29.07 -7.61,-2.47 -52.83,-2.45" fill="#ffffff"/>
      <polygon points="38.21,-52.59 25.87,-22 5.29,-7.28 12.92,-31.4" fill="#ffffff"/>
      <polygon points="61.82,20.09 28.91,17.81 8.56,2.78 33.86,2.59" fill="#ffffff"/>
      <polygon points="0,65 -8,33 0,9 8,33" fill="#ffffff"/>
      <polygon points="-61.82,20.09 -33.86,2.59 -8.56,2.78 -28.91,17.81" fill="#ffffff"/>
      <polygon points="-38.21,-52.59 -12.92,-31.4 -5.29,-7.28 -25.87,-22" fill="#ffffff"/>
    </mask>
    <g mask="url(#gl800238)"><rect x="-150" y="-130" width="55" height="260" fill="url(#glintBand)"><animateTransform attributeName="transform" type="translate" calcMode="spline" dur="9s" repeatCount="indefinite" keyTimes="0;0.45;1" values="0,0;300,0;300,0" keySplines="0.5 0 0.1 1;0.5 0 0.1 1"/></rect></g>
  </g>
  <text x="800" y="440" text-anchor="middle" font-size="84" font-weight="600" letter-spacing="-3" fill="#F5F5F2">Roshan Raj</text>
  <rect x="640" y="478" width="320" height="1" fill="#C9A876" fill-opacity="0.18"/>
  <text x="800" y="540" text-anchor="middle" font-size="24" font-weight="400" letter-spacing="0.5" fill="#C7C5C0">Most engineers just write code. I build systems that <tspan fill="#B22222">dominate.</tspan></text>
  <circle cx="1336" cy="572" r="13" fill="none" stroke="#C9A876" stroke-width="1" stroke-opacity="0.5"/>
  <circle cx="1336" cy="572" r="3.5" fill="#C9A876"><animate attributeName="opacity" calcMode="spline" dur="4s" repeatCount="indefinite" keyTimes="0;0.5;1" values="1;0.4;1" keySplines="0.5 0 0.1 1;0.5 0 0.1 1"/></circle>
  <circle cx="1336" cy="572" r="3.5" fill="none" stroke="#C9A876" stroke-width="1"><animate attributeName="r" calcMode="spline" dur="6s" repeatCount="indefinite" keyTimes="0;0.5;1" values="3.5;13;13" keySplines="0.32 0.72 0 1;0.5 0 0.1 1"/><animate attributeName="opacity" calcMode="spline" dur="6s" repeatCount="indefinite" keyTimes="0;0.5;1" values="0.4;0;0" keySplines="0.32 0.72 0 1;0.5 0 0.1 1"/></circle>
</svg>
