<svg xmlns="http://www.w3.org/2000/svg" viewBox="0 0 1600 720" width="1600" height="720" font-family="-apple-system, BlinkMacSystemFont, 'SF Pro Display', 'Inter Tight', system-ui, sans-serif">
  <defs>
    <filter id="blur55" x="-60%" y="-60%" width="220%" height="220%"><feGaussianBlur stdDeviation="55"/></filter>
    <radialGradient id="lfGold"><stop offset="0" stop-color="#C9A876" stop-opacity="0.12"/><stop offset="1" stop-color="#C9A876" stop-opacity="0"/></radialGradient>
    <radialGradient id="lfMid"><stop offset="0" stop-color="#1A2332" stop-opacity="0.18"/><stop offset="1" stop-color="#1A2332" stop-opacity="0"/></radialGradient>
    <radialGradient id="lfTit"><stop offset="0" stop-color="#A8A29A" stop-opacity="0.08"/><stop offset="1" stop-color="#A8A29A" stop-opacity="0"/></radialGradient>
    <linearGradient id="specBand" x1="0" y1="0" x2="1" y2="0"><stop offset="0" stop-color="#ffffff" stop-opacity="0"/><stop offset="0.5" stop-color="#ffffff" stop-opacity="0.07"/><stop offset="1" stop-color="#ffffff" stop-opacity="0"/></linearGradient>
    <linearGradient id="edgeGrad" x1="0" y1="0" x2="1" y2="0"><stop offset="0" stop-color="#ffffff" stop-opacity="0"/><stop offset="0.5" stop-color="#ffffff" stop-opacity="0.22"/><stop offset="1" stop-color="#ffffff" stop-opacity="0"/></linearGradient>
    <linearGradient id="topGlow" x1="0" y1="0" x2="0" y2="1"><stop offset="0" stop-color="#ffffff" stop-opacity="0.06"/><stop offset="1" stop-color="#ffffff" stop-opacity="0"/></linearGradient>
    <linearGradient id="shine" gradientUnits="userSpaceOnUse" x1="-100" y1="-100" x2="100" y2="100"><stop offset="0" stop-color="#EBD6A8"/><stop offset="0.5" stop-color="#C9A876"/><stop offset="1" stop-color="#8A6D40"/></linearGradient>
    <linearGradient id="glintBand" x1="0" y1="0" x2="1" y2="0"><stop offset="0" stop-color="#EBD6A8" stop-opacity="0"/><stop offset="0.5" stop-color="#EBD6A8" stop-opacity="0.6"/><stop offset="1" stop-color="#EBD6A8" stop-opacity="0"/></linearGradient>
    <clipPath id="heroclip"><rect x="100" y="80" width="1400" height="560" rx="36"/></clipPath>
  </defs>
  <rect width="1600" height="720" fill="#0E0E10"/>
  <g filter="url(#blur55)">
    <ellipse cx="520" cy="250" rx="470" ry="330" fill="url(#lfGold)"><animateTransform attributeName="transform" type="translate" calcMode="spline" dur="20s" repeatCount="indefinite" keyTimes="0;0.5;1" values="0,0;60,24;0,0" keySplines="0.5 0 0.1 1;0.5 0 0.1 1"/></ellipse>
    <ellipse cx="1150" cy="520" rx="520" ry="350" fill="url(#lfMid)"><animateTransform attributeName="transform" type="translate" calcMode="spline" dur="24s" repeatCount="indefinite" keyTimes="0;0.5;1" values="0,0;-70,-12;0,0" keySplines="0.5 0 0.1 1;0.5 0 0.1 1"/></ellipse>
    <ellipse cx="820" cy="360" rx="400" ry="280" fill="url(#lfTit)"><animateTransform attributeName="transform" type="translate" calcMode="spline" dur="18s" repeatCount="indefinite" keyTimes="0;0.5;1" values="0,0;30,-26;0,0" keySplines="0.5 0 0.1 1;0.5 0 0.1 1"/></ellipse>
  </g>
  <g fill="#F5F5F2">
    <circle cx="50" cy="140" r="1" opacity="0.05"><animate attributeName="opacity" calcMode="spline" dur="7s" repeatCount="indefinite" keyTimes="0;0.5;1" values="0.05;0.08;0.05" keySplines="0.5 0 0.1 1;0.5 0 0.1 1"/></circle>
    <circle cx="40" cy="360" r="1" opacity="0.06"><animate attributeName="opacity" calcMode="spline" dur="9s" repeatCount="indefinite" keyTimes="0;0.5;1" values="0.06;0.09;0.06" keySplines="0.5 0 0.1 1;0.5 0 0.1 1"/></circle>
    <circle cx="60" cy="560" r="1" opacity="0.045"><animate attributeName="opacity" calcMode="spline" dur="11s" repeatCount="indefinite" keyTimes="0;0.5;1" values="0.045;0.075;0.045" keySplines="0.5 0 0.1 1;0.5 0 0.1 1"/></circle>
    <circle cx="1545" cy="160" r="1" opacity="0.05"><animate attributeName="opacity" calcMode="spline" dur="8s" repeatCount="indefinite" keyTimes="0;0.5;1" values="0.05;0.08;0.05" keySplines="0.5 0 0.1 1;0.5 0 0.1 1"/></circle>
    <circle cx="1560" cy="400" r="1" opacity="0.06"><animate attributeName="opacity" calcMode="spline" dur="10s" repeatCount="indefinite" keyTimes="0;0.5;1" values="0.06;0.09;0.06" keySplines="0.5 0 0.1 1;0.5 0 0.1 1"/></circle>
    <circle cx="1540" cy="600" r="1" opacity="0.045"><animate attributeName="opacity" calcMode="spline" dur="9s" repeatCount="indefinite" keyTimes="0;0.5;1" values="0.045;0.075;0.045" keySplines="0.5 0 0.1 1;0.5 0 0.1 1"/></circle>
    <circle cx="300" cy="40" r="1" opacity="0.05"><animate attributeName="opacity" calcMode="spline" dur="8s" repeatCount="indefinite" keyTimes="0;0.5;1" values="0.05;0.08;0.05" keySplines="0.5 0 0.1 1;0.5 0 0.1 1"/></circle>
    <circle cx="900" cy="52" r="1" opacity="0.04"><animate attributeName="opacity" calcMode="spline" dur="11s" repeatCount="indefinite" keyTimes="0;0.5;1" values="0.04;0.07;0.04" keySplines="0.5 0 0.1 1;0.5 0 0.1 1"/></circle>
    <circle cx="1300" cy="44" r="1" opacity="0.05"><animate attributeName="opacity" calcMode="spline" dur="9s" repeatCount="indefinite" keyTimes="0;0.5;1" values="0.05;0.08;0.05" keySplines="0.5 0 0.1 1;0.5 0 0.1 1"/></circle>
    <circle cx="500" cy="690" r="1" opacity="0.05"><animate attributeName="opacity" calcMode="spline" dur="10s" repeatCount="indefinite" keyTimes="0;0.5;1" values="0.05;0.08;0.05" keySplines="0.5 0 0.1 1;0.5 0 0.1 1"/></circle>
    <circle cx="1100" cy="695" r="1" opacity="0.045"><animate attributeName="opacity" calcMode="spline" dur="8s" repeatCount="indefinite" keyTimes="0;0.5;1" values="0.045;0.075;0.045" keySplines="0.5 0 0.1 1;0.5 0 0.1 1"/></circle>
    <circle cx="760" cy="700" r="1" opacity="0.04"><animate attributeName="opacity" calcMode="spline" dur="11s" repeatCount="indefinite" keyTimes="0;0.5;1" values="0.04;0.07;0.04" keySplines="0.5 0 0.1 1;0.5 0 0.1 1"/></circle>
  </g>
  <rect x="100" y="80" width="1400" height="560" rx="36" fill="#1F1F22" fill-opacity="0.52" stroke="#F5F5F2" stroke-opacity="0.14" stroke-width="1"/>
  <g clip-path="url(#heroclip)">
    <rect x="100" y="80" width="1400" height="12" fill="url(#topGlow)"/>
    <g transform="rotate(20 800.0 360.0)"><rect x="-240" y="-256" width="280" height="1232" fill="url(#specBand)"><animateTransform attributeName="transform" type="translate" calcMode="spline" dur="10s" begin="0s" repeatCount="indefinite" keyTimes="0;0.4;1" values="0,0;1800,0;1800,0" keySplines="0.5 0 0.1 1;0.5 0 0.1 1"/></rect></g>
  </g>
  <rect x="136" y="80.5" width="1328" height="1.5" fill="url(#edgeGrad)"/>
  <g transform="translate(800 210) scale(0.608)">
    <g fill="url(#shine)">
      <polygon points="0,-100 14,-51 0,-8 -14,-51"/>
      <polygon points="95.11,-30.9 52.83,-2.45 7.61,-2.47 44.18,-29.07"/>
      <polygon points="58.78,80.9 18.65,49.49 4.7,6.47 41.3,33.03"/>
      <polygon points="-58.78,80.9 -41.3,33.03 -4.7,6.47 -18.65,49.49"/>
      <polygon points="-95.11,-30.9 -44.18,-29.07 -7.61,-2.47 -52.83,-2.45"/>
      <polygon points="38.21,-52.59 25.87,-22 5.29,-7.28 12.92,-31.4"/>
      <polygon points="61.82,20.09 28.91,17.81 8.56,2.78 33.86,2.59"/>
      <polygon points="0,65 -8,33 0,9 8,33"/>
      <polygon points="-61.82,20.09 -33.86,2.59 -8.56,2.78 -28.91,17.81"/>
      <polygon points="-38.21,-52.59 -12.92,-31.4 -5.29,-7.28 -25.87,-22"/>
    </g>
    <mask id="gl800210">
      <polygon points="0,-100 14,-51 0,-8 -14,-51" fill="#ffffff"/>
      <polygon points="95.11,-30.9 52.83,-2.45 7.61,-2.47 44.18,-29.07" fill="#ffffff"/>
      <polygon points="58.78,80.9 18.65,49.49 4.7,6.47 41.3,33.03" fill="#ffffff"/>
      <polygon points="-58.78,80.9 -41.3,33.03 -4.7,6.47 -18.65,49.49" fill="#ffffff"/>
      <polygon points="-95.11,-30.9 -44.18,-29.07 -7.61,-2.47 -52.83,-2.45" fill="#ffffff"/>
      <polygon points="38.21,-52.59 25.87,-22 5.29,-7.28 12.92,-31.4" fill="#ffffff"/>
      <polygon points="61.82,20.09 28.91,17.81 8.56,2.78 33.86,2.59" fill="#ffffff"/>
      <polygon points="0,65 -8,33 0,9 8,33" fill="#ffffff"/>
      <polygon points="-61.82,20.09 -33.86,2.59 -8.56,2.78 -28.91,17.81" fill="#ffffff"/>
      <polygon points="-38.21,-52.59 -12.92,-31.4 -5.29,-7.28 -25.87,-22" fill="#ffffff"/>
    </mask>
    <g mask="url(#gl800210)"><rect x="-150" y="-130" width="55" height="260" fill="url(#glintBand)"><animateTransform attributeName="transform" type="translate" calcMode="spline" dur="9s" begin="0s" repeatCount="indefinite" keyTimes="0;0.45;1" values="0,0;300,0;300,0" keySplines="0.5 0 0.1 1;0.5 0 0.1 1"/></rect></g>
  </g>
  <text x="800" y="400" text-anchor="middle" font-size="76" font-weight="600" letter-spacing="-3" fill="#F5F5F2">roshworldwide</text>
  <text x="800" y="460" text-anchor="middle" font-size="24" font-weight="400" letter-spacing="1" fill="#C7C5C0">Build dark. Build fast. Build <tspan fill="#B22222">inevitable.</tspan></text>
  <text x="48" y="674" font-family="'SF Mono', ui-monospace, Menlo, monospace" font-size="12" letter-spacing="2" fill="#888780">BLR · 12.97°N 77.59°E · UTC+05:30</text>
  <text x="1552" y="674" text-anchor="end" font-family="'SF Mono', ui-monospace, Menlo, monospace" font-size="12" letter-spacing="2" fill="#888780">SYS // SHIPPING</text>
  <circle cx="1398" cy="669" r="3" fill="#C9A876"><animate attributeName="opacity" calcMode="spline" dur="4s" repeatCount="indefinite" keyTimes="0;0.5;1" values="1;0.35;1" keySplines="0.5 0 0.1 1;0.5 0 0.1 1"/></circle>
</svg>
